<svg width="41" height="41" viewBox="0 0 41 41" fill="none" xmlns="http://www.w3.org/2000/svg">
<g clip-path="url(#clip0_1_3)">
<rect width="41" height="41" fill="#176B87"/>
<path d="M0 0H41V41H0V0Z" fill="#176B87"/>
<path d="M20.5 36.9C29.5575 36.9 36.9 29.5575 36.9 20.5C36.9 11.4425 29.5575 4.10001 20.5 4.10001C11.4425 4.10001 4.10001 11.4425 4.10001 20.5C4.10001 29.5575 11.4425 36.9 20.5 36.9Z" fill="#EEEEEE"/>
<path d="M8.20001 8.20001H32.8V32.8H8.20001V8.20001Z" fill="#176B87"/>
<path d="M20.5 28.7C25.0287 28.7 28.7 25.0287 28.7 20.5C28.7 15.9713 25.0287 12.3 20.5 12.3C15.9713 12.3 12.3 15.9713 12.3 20.5C12.3 25.0287 15.9713 28.7 20.5 28.7Z" fill="#EEEEEE"/>
<path d="M8.20001 20.5H32.8H8.20001Z" fill="black"/>
<path d="M8.20001 20.5H32.8" stroke="#EEEEEE" stroke-opacity="0.933333" stroke-width="2"/>
<path d="M12.3 14.35C13.4322 14.35 14.35 13.4322 14.35 12.3C14.35 11.1678 13.4322 10.25 12.3 10.25C11.1678 10.25 10.25 11.1678 10.25 12.3C10.25 13.4322 11.1678 14.35 12.3 14.35Z" fill="white"/>
<path d="M28.7 14.35C29.8322 14.35 30.75 13.4322 30.75 12.3C30.75 11.1678 29.8322 10.25 28.7 10.25C27.5678 10.25 26.65 11.1678 26.65 12.3C26.65 13.4322 27.5678 14.35 28.7 14.35Z" fill="white"/>
</g>
<defs>
<clipPath id="clip0_1_3">
<rect width="41" height="41" fill="white"/>
</clipPath>
</defs>
</svg>
