<svg width="168" height="41" fill="none" xmlns="http://www.w3.org/2000/svg"><g clip-path="url(#a)"><path fill="#176B87" d="M0 0h41v41H0z"/><path d="M0 0h41v41H0V0Z" fill="#176B87"/><path d="M20.5 36.9a16.4 16.4 0 1 0 0-32.8 16.4 16.4 0 0 0 0 32.8Z" fill="#EEE"/><path d="M8.2 8.2h24.6v24.6H8.2V8.2Z" fill="#176B87"/><path d="M20.5 28.7a8.2 8.2 0 1 0 0-16.4 8.2 8.2 0 0 0 0 16.4Z" fill="#EEE"/><path d="M8.2 20.5h24.6Z" fill="#000"/><path d="M8.2 20.5h24.6" stroke="#EEE" stroke-opacity=".93" stroke-width="2"/><path d="M12.3 14.35a2.05 2.05 0 1 0 0-4.1 2.05 2.05 0 0 0 0 4.1ZM28.7 14.35a2.05 2.05 0 1 0 0-4.1 2.05 2.05 0 0 0 0 4.1Z" fill="#fff"/></g><path d="M50.74 30V13.2h6.28c1.43 0 2.65.23 3.68.7 1.02.44 1.8 1.1 2.35 1.96.56.85.84 1.88.84 3.1 0 1.18-.28 2.2-.84 3.07A5.31 5.31 0 0 1 60.7 24c-1.03.46-2.25.7-3.68.7h-5.3l.8-.84V30h-1.78Zm1.77-6-.79-.86h5.26c1.68 0 2.95-.36 3.81-1.08a3.81 3.81 0 0 0 1.32-3.1c0-1.34-.44-2.38-1.32-3.12-.86-.74-2.13-1.1-3.81-1.1h-5.26l.8-.84V24Zm11.69 6 7.68-16.8h1.75L81.3 30h-1.87l-7.06-15.77h.72L66.04 30H64.2Zm3.02-4.49.53-1.44h9.77l.52 1.44H67.22Zm21.5 4.63c-1.25 0-2.45-.2-3.6-.6a6.98 6.98 0 0 1-2.64-1.58l.7-1.37c.59.58 1.38 1.07 2.37 1.47 1.01.38 2.07.57 3.17.57 1.06 0 1.91-.13 2.57-.38a3.11 3.11 0 0 0 1.46-1.08c.32-.45.48-.95.48-1.49 0-.66-.19-1.18-.57-1.58-.37-.4-.86-.72-1.47-.94a15 15 0 0 0-2.01-.62c-.74-.18-1.48-.36-2.21-.56-.74-.2-1.42-.48-2.04-.81a4.4 4.4 0 0 1-1.49-1.32 3.91 3.91 0 0 1-.55-2.19c0-.83.21-1.59.65-2.28a4.59 4.59 0 0 1 2.04-1.68 8.2 8.2 0 0 1 3.5-.64 9.94 9.94 0 0 1 5.2 1.48l-.6 1.42a8.62 8.62 0 0 0-4.63-1.4c-1 0-1.83.14-2.49.42a3.2 3.2 0 0 0-1.46 1.1c-.3.45-.46.96-.46 1.54 0 .65.18 1.18.55 1.58.39.4.88.71 1.49.94.62.22 1.3.42 2.04.6.74.17 1.46.36 2.18.57.74.21 1.41.48 2.02.82a3.63 3.63 0 0 1 2.06 3.43c0 .82-.22 1.58-.67 2.28a4.79 4.79 0 0 1-2.06 1.68c-.91.42-2.09.62-3.53.62Zm13.16-.14V14.74h-5.9V13.2h13.58v1.54h-5.9V30h-1.78Zm12.1-9.29h8.88v1.51h-8.88v-1.5Zm.2 7.75h10.1V30H112.4V13.2h11.52v1.54h-9.74v13.72ZM128.46 30V13.2h7.24c1.88 0 3.32.38 4.35 1.13a3.7 3.7 0 0 1 1.56 3.19 3.88 3.88 0 0 1-2.38 3.72c-.72.32-1.51.48-2.38.48l.41-.58c1.08 0 2 .17 2.76.5a3.87 3.87 0 0 1 2.47 3.87c0 1.43-.52 2.53-1.58 3.31-1.04.79-2.62 1.18-4.73 1.18h-7.72Zm1.77-1.46h5.93c1.47 0 2.6-.25 3.38-.75.79-.51 1.18-1.32 1.18-2.42 0-1.09-.4-1.88-1.18-2.38a6.2 6.2 0 0 0-3.38-.77h-6.12v-1.46h5.54c1.35 0 2.39-.26 3.12-.77a2.58 2.58 0 0 0 1.13-2.28c0-1.02-.38-1.78-1.13-2.28a5.42 5.42 0 0 0-3.12-.77h-5.35v13.88ZM146.55 30V13.2h1.77V30h-1.77Zm7.24 0V13.2h1.47l11.59 14.6h-.77V13.2h1.75V30h-1.46L154.8 15.4h.77V30h-1.78Z" fill="#EEE"/><defs><clipPath id="a"><path fill="#fff" d="M0 0h41v41H0z"/></clipPath></defs></svg>